<?xml version="1.0" encoding="UTF-8" standalone="no"?>
<svg
   xmlns:osb="http://www.openswatchbook.org/uri/2009/osb"
   xmlns:dc="http://purl.org/dc/elements/1.1/"
   xmlns:cc="http://creativecommons.org/ns#"
   xmlns:rdf="http://www.w3.org/1999/02/22-rdf-syntax-ns#"
   xmlns:svg="http://www.w3.org/2000/svg"
   xmlns="http://www.w3.org/2000/svg"
   xmlns:sodipodi="http://sodipodi.sourceforge.net/DTD/sodipodi-0.dtd"
   xmlns:inkscape="http://www.inkscape.org/namespaces/inkscape"
   t="1602639021485"
   class="icon"
   viewBox="0 0 2621.44 2621.44"
   version="1.1"
   p-id="5423"
   width="512"
   height="512"
   id="svg897"
   sodipodi:docname="safari-pinned-tab.svg"
   inkscape:version="1.0.1 (3bc2e813f5, 2020-09-07)"
   inkscape:export-filename="/home/johnpoint/Workplace/code/RssReader/web/public/img/icons/apple-touch-icon.png"
   inkscape:export-xdpi="33.75"
   inkscape:export-ydpi="33.75">
  <metadata
     id="metadata901">
    <rdf:RDF>
      <cc:Work
         rdf:about="">
        <dc:format>image/svg+xml</dc:format>
        <dc:type
           rdf:resource="http://purl.org/dc/dcmitype/StillImage" />
        <dc:title></dc:title>
      </cc:Work>
    </rdf:RDF>
  </metadata>
  <sodipodi:namedview
     pagecolor="#ffffff"
     bordercolor="#666666"
     borderopacity="1"
     objecttolerance="10"
     gridtolerance="10"
     guidetolerance="10"
     inkscape:pageopacity="1"
     inkscape:pageshadow="2"
     inkscape:window-width="1920"
     inkscape:window-height="1023"
     id="namedview899"
     showgrid="false"
     inkscape:zoom="1.05"
     inkscape:cx="92.366264"
     inkscape:cy="321.15511"
     inkscape:window-x="0"
     inkscape:window-y="27"
     inkscape:window-maximized="1"
     inkscape:current-layer="layer2"
     inkscape:document-rotation="0"
     inkscape:pagecheckerboard="true"
     borderlayer="false" />
  <defs
     id="defs885">
    <linearGradient
       id="linearGradient1564"
       osb:paint="solid">
      <stop
         style="stop-color:#42b983;stop-opacity:1;"
         offset="0"
         id="stop1562" />
    </linearGradient>
    <style
       type="text/css"
       id="style883" />
    <style
       type="text/css"
       id="style1543" />
    <style
       type="text/css"
       id="style883-5" />
    <style
       type="text/css"
       id="style1543-6" />
    <style
       type="text/css"
       id="style883-6" />
    <style
       type="text/css"
       id="style1543-2" />
  </defs>
  <g
     inkscape:groupmode="layer"
     id="layer3"
     inkscape:label="3" />
  <g
     inkscape:groupmode="layer"
     id="layer1"
     inkscape:label="1"
     style="opacity:1;mix-blend-mode:normal;">
    <path
       d="M 0,2621.44 H 2621.44 V 0 H 0 Z"
       style="fill:#42b983;fill-opacity:1;fill-rule:nonzero;stroke:none;stroke-width:0.32"
       id="path1124" />
  </g>
  <g
     inkscape:groupmode="layer"
     id="layer2"
     inkscape:label="2">
    <path
       d="m 1457.2517,2186.24 h -294.1008 a 136.74748,148.72126 0 0 1 -48.7046,-44.8201 58.070849,63.155603 0 0 0 -46.8313,-21.3914 H 359.5253 c -11.23951,0 -23.41566,0 -31.8453,-7.1305 V 758.10848 c 5.61976,-8.1491 14.98603,-7.13048 22.47904,-7.13048 h 110.52194 c 19.66915,0 22.47903,0 23.41566,-25.46596 0.93663,-25.46597 0,-37.68964 0,-57.04378 0,-19.35413 4.68313,-24.44732 23.41566,-25.46596 h 114.26844 c 21.54242,0 25.28892,0 25.28892,-26.4846 V 482.05738 c 0,-34.63372 0,-40.74555 35.59182,-46.85738 h 12.17615 a 1361.8551,1481.1007 0 0 1 194.81832,56.02513 c 93.66266,28.52189 182.64215,59.08105 273.49495,88.62157 a 247.26941,268.92062 0 0 1 144.2405,130.38577 c 10.3029,19.35412 13.1128,20.37277 28.0988,0 a 218.23399,237.34282 0 0 1 157.3533,-71.30473 h 142.3672 c 22.4791,0 24.3523,0 25.2889,-26.4846 0,-39.72691 0,-39.72691 36.5285,-39.72691 h 258.5089 a 16.859278,18.335497 0 0 1 17.7959,19.35414 v 28.52188 c 0,17.31686 4.6832,21.39142 20.6058,21.39142 h 105.8389 c 36.5284,0 36.5284,0 36.5284,39.7269 v 45.83874 c 0,15.27959 0,21.39142 19.6691,22.41007 h 121.7614 c 11.2396,0 16.8594,0 15.9228,17.31686 a 38.40169,41.764188 0 0 0 0,11.20501 V 2091.5066 c 0,28.5219 0,29.5405 -27.1623,29.5405 h -694.0403 c -54.3243,0 -41.2115,-6.1118 -79.6132,35.6523 a 100.21904,108.99434 0 0 1 -35.5918,29.5406 z"
       fill="#4cb7fe"
       p-id="5424"
       id="path887"
       style="fill:#ffffff;fill-opacity:1;stroke-width:1.63972" />
    <path
       d="m 1816.9163,1071.8492 146.1138,140.5722 V 740.79162 c 0,-11.20503 0,-16.29821 14.0493,-15.27958 14.0494,1.01864 45.8948,0 69.3103,0 8.4297,0 11.2396,0 10.303,10.1864 a 20.605785,22.410053 0 0 0 0,8.1491 V 1878.6111 c 0,16.2982 0,19.3541 -17.7959,18.3355 h -561.976 a 159.22652,173.16859 0 0 0 -112.3952,50.9319 c -7.493,7.1305 -13.1127,23.4287 -24.3523,17.3169 -11.2395,-6.1118 0,-19.3541 0,-29.5405 V 895.62472 a 152.67013,166.03812 0 0 1 59.9441,-137.51624 132.06435,143.62806 0 0 1 63.6906,-28.52189 c 63.6907,-7.13046 127.3813,0 187.3254,0 12.1761,0 8.4296,9.16775 8.4296,15.27958 V 1213.44 c 0,2.0373 6.5564,0 9.3663,0 l 93.6626,-89.6402 z m -543.2434,898.4394 a 240.71303,261.79016 0 0 0 -27.1622,-66.2115 157.35327,171.13131 0 0 0 -93.6627,-66.2116 c -44.958,-13.2423 -88.9795,-29.5405 -133.9376,-44.8201 l -271.62168,-88.6215 c -30.90868,-10.1864 -30.90868,-10.1864 -30.90868,-45.8388 V 526.87749 l 67.43711,22.41005 233.22005,75.37926 118.0149,38.70828 a 174.21254,189.4668 0 0 1 123.6347,129.36713 355.91811,387.08273 0 0 1 15.9227,89.6402 V 1949.9158 a 30.908678,33.615079 0 0 1 -0.9366,20.3728 z"
       fill="#fefefe"
       p-id="5425"
       id="path889"
       style="stroke-width:1.63972;fill:#42b983;fill-opacity:1" />
    <path
       d="M 394.18049,1435.5032 V 854.87916 c 0,-23.42869 0,-20.37277 18.73253,-20.37277 h 61.81735 c 20.6058,0 14.98602,0 14.98602,18.33549 V 1952.9717 c 0,15.2796 0,18.3355 16.85929,18.3355 H 1115.383 a 103.96555,113.0689 0 0 1 88.0429,34.6338 31.845304,34.633718 0 0 1 8.4296,14.2609 c 4.6831,21.3914 17.7959,24.4473 36.5284,24.4473 h 134.8743 a 16.859278,18.335497 0 0 0 18.7325,-12.2236 87.106273,94.733403 0 0 1 76.8034,-58.0625 h 628.4764 c 22.479,0 19.6691,0 19.6691,-21.3914 V 855.89781 c 0,-21.39142 0,-21.39142 21.5425,-21.39142 h 59.0075 c 19.6691,0 15.9226,0 15.9226,18.33549 V 2021.2205 c 0,16.2982 0,19.3542 -18.7326,19.3542 h -702.4699 a 32.781931,35.652356 0 0 0 -24.3522,10.1863 207.93111,226.1378 0 0 1 -55.261,57.0438 199.50146,216.97005 0 0 1 -74.9301,0 h -143.3039 a 25.288918,27.503247 0 0 1 -18.7325,-9.1677 l -45.8948,-50.932 a 29.035424,31.577801 0 0 0 -24.3522,-10.1864 H 413.84965 c -22.47904,0 -18.73253,0 -18.73254,-20.3727 -0.93662,-191.5041 -0.93662,-387.0827 -0.93662,-581.6428 z"
       fill="#a2d3fe"
       p-id="5426"
       id="path891"
       style="fill:#42b983;fill-opacity:1;stroke-width:1.6384;stroke-miterlimit:4;stroke-dasharray:none" />
    <path
       d="M 1096.6504,1897.9652 H 572.13954 c -12.17615,0 -14.98602,0 -14.98602,-16.2982 V 741.81027 c 0,-13.24231 0,-16.29823 15.92264,-15.27959 15.92265,1.01863 46.83133,0 71.18363,0 6.55638,0 10.30288,0 9.36626,10.18639 v 979.93043 a 36.528437,39.726912 0 0 0 30.90868,44.8201 l 139.55736,44.8201 252.88921,83.5284 a 79.613261,86.584294 0 0 1 15.9226,6.1119 z"
       fill="#fefefe"
       p-id="5427"
       id="path893"
       style="stroke-width:1.63972;fill:#42b983;fill-opacity:1" />
    <path
       d="m 1766.312,896.43037 c 4.5463,4.54623 7.0261,10.33233 7.0261,16.94506 0,6.61269 -2.6865,12.60545 -7.0261,16.94507 -4.5462,4.54621 -10.7456,7.02591 -16.945,7.02591 -6.6127,0 -12.6055,-2.6863 -16.9451,-7.02591 -4.7528,-4.33962 -7.2326,-10.53904 -7.2326,-16.73841 0,-6.61273 2.6864,-12.60549 7.026,-16.94506 4.5462,-4.54623 10.3323,-7.02601 16.945,-7.02601 6.8194,-0.20666 12.6055,2.47978 17.1517,6.81935 z m -41.1227,-78.93912 v 34.71667 c 22.5245,0 44.0158,8.88585 59.9276,24.79766 15.9118,15.91181 24.7977,37.60972 24.7977,60.54753 h 34.7166 c 0,-33.06353 -13.432,-63.02731 -35.13,-84.72526 -21.2846,-21.49125 -51.2484,-34.92333 -84.3119,-35.3366 z m 0,-61.78745 v 34.71667 c 81.2122,0 147.1326,65.92041 147.1326,147.13264 h 34.7167 c 0,-50.00854 -20.458,-95.47086 -53.3149,-128.53439 -32.6502,-32.65022 -78.1125,-52.9016 -128.5344,-53.31492 z"
       fill="#eba33a"
       p-id="6781"
       id="path1547"
       style="fill:#42b983;fill-opacity:1;stroke-width:0.201804" />
  </g>
</svg>
